<svg width="25" height="27" viewBox="0 0 25 27" fill="none" xmlns="http://www.w3.org/2000/svg">
<path d="M12.3997 6.56177V10.7333" stroke="#5D008F" stroke-width="1.5" stroke-miterlimit="10" stroke-linecap="round"/>
<path d="M12.4254 1C7.71037 1 3.89224 4.73307 3.89224 9.34303V11.9737C3.89224 12.8256 3.53349 14.1033 3.08505 14.8299L1.45787 17.4856C0.458491 19.1267 1.15037 20.9556 2.99537 21.5569C9.11974 23.5487 15.7438 23.5487 21.8682 21.5569C23.5979 20.9932 24.341 19.0139 23.4057 17.4856L21.7785 14.8299C21.3301 14.1033 20.9713 12.813 20.9713 11.9737V9.34303C20.9585 4.75812 17.1147 1 12.4254 1Z" stroke="#5D008F" stroke-width="1.5" stroke-miterlimit="10" stroke-linecap="round"/>
<path d="M16.6663 22.0707C16.6663 24.3631 14.7444 26.2422 12.3997 26.2422C11.2338 26.2422 10.1576 25.7662 9.3888 25.0145C8.62005 24.2629 8.13318 23.2106 8.13318 22.0707" stroke="#5D008F" stroke-width="1.5" stroke-miterlimit="10"/>
</svg>
