<svg width="28" height="28" viewBox="0 0 28 28" fill="none" xmlns="http://www.w3.org/2000/svg">
<path d="M26.1817 8.67627C25.4646 8.06675 24.9627 7.20631 24.7835 6.27415C24.5684 5.12689 23.9589 4.05131 23.0626 3.29841C22.1662 2.54551 21.0189 2.11528 19.8359 2.11528C18.8678 2.11528 17.9357 1.79262 17.2186 1.18313C16.3223 0.430227 15.1751 0 13.9919 0C12.8088 0 11.6615 0.430227 10.7652 1.18313C10.0482 1.79262 9.11601 2.11528 8.148 2.11528C6.96486 2.11528 5.81761 2.50966 4.92128 3.29841C4.02499 4.05131 3.4155 5.09101 3.20039 6.27415C3.02113 7.20631 2.55504 8.06675 1.80215 8.67627C0.905837 9.42914 0.29635 10.4689 0.0812368 11.652C-0.133877 12.7993 0.0812367 14.0182 0.690727 15.0221C1.15681 15.8467 1.33607 16.8147 1.19266 17.7469C0.977545 18.8942 1.19266 20.1131 1.80215 21.117C2.37578 22.1208 3.30794 22.9096 4.41936 23.304C5.31566 23.6266 6.06858 24.272 6.57048 25.0966C7.14415 26.0646 8.00459 26.8534 9.08017 27.2477C10.1199 27.678 11.303 27.7138 12.3786 27.3553C12.4503 27.3195 12.5578 27.3195 12.6295 27.2836C13.5258 26.9609 14.5297 26.9609 15.426 27.2836C16.5375 27.678 17.7564 27.678 18.8678 27.2836C19.9793 26.8892 20.9114 26.1005 21.4851 25.0966C21.9511 24.272 22.7399 23.6266 23.6362 23.304C24.7476 22.9096 25.6798 22.1208 26.2534 21.117C26.827 20.1131 27.0422 18.8942 26.8629 17.7469C26.8629 17.6752 26.827 17.6035 26.827 17.5318C26.7195 16.6355 26.8988 15.775 27.329 14.9863C27.9026 13.9824 28.1177 12.7634 27.9384 11.6161C27.6875 10.4689 27.078 9.42914 26.1817 8.67627Z" fill="#FFA937" fill-opacity="0.2"/>
<path d="M9 8H13.0927M13.0927 8H19.1818M13.0927 8C13.9245 8.46009 15.0455 9.33333 15.0455 11.3333C15.0455 13.3333 13.1364 14.7317 9.31818 14.6667C11.2481 14.6995 13.1364 18.6667 16 22M9 11.4507H19.1818" stroke="#FFA937" stroke-width="1.3" stroke-linecap="round"/>
</svg>
