<svg width="15" height="16" viewBox="0 0 15 16" fill="none" xmlns="http://www.w3.org/2000/svg">
<path d="M13.6002 3.99063C11.2692 3.75963 8.92413 3.64062 6.58609 3.64062C5.20007 3.64062 3.81405 3.71063 2.42802 3.85063L1 3.99063" stroke="#FE6061" stroke-width="1.2" stroke-linecap="round" stroke-linejoin="round"/>
<path d="M4.84973 3.28411L5.00373 2.3671C5.11574 1.70209 5.19974 1.20508 6.38276 1.20508H8.21679C9.39981 1.20508 9.49081 1.73009 9.59581 2.3741L9.74981 3.28411" stroke="#FE6061" stroke-width="1.2" stroke-linecap="round" stroke-linejoin="round"/>
<path d="M12.0947 6.20312L11.6397 13.2523C11.5627 14.3513 11.4997 15.2053 9.54664 15.2053H5.05256C3.09953 15.2053 3.03653 14.3513 2.95952 13.2523L2.50452 6.20312" stroke="#FE6061" stroke-width="1.2" stroke-linecap="round" stroke-linejoin="round"/>
<path d="M6.13159 11.3555H8.46263" stroke="#FE6061" stroke-width="1.2" stroke-linecap="round" stroke-linejoin="round"/>
<path d="M5.55054 8.55469H9.0506" stroke="#FE6061" stroke-width="1.2" stroke-linecap="round" stroke-linejoin="round"/>
</svg>
