<svg width="60" height="60" viewBox="0 0 60 60" fill="none" xmlns="http://www.w3.org/2000/svg">
<path d="M56.1036 18.592C54.5671 17.2859 53.4915 15.4421 53.1074 13.4446C52.6465 10.9862 51.3404 8.68137 49.4198 7.06802C47.4991 5.45467 45.0406 4.53275 42.5054 4.53275C40.4311 4.53275 38.4336 3.84132 36.8971 2.53527C34.9764 0.921916 32.518 0 29.9827 0C27.4474 0 24.989 0.921916 23.0683 2.53527C21.5318 3.84132 19.5343 4.53275 17.46 4.53275C14.9247 4.53275 12.4663 5.37784 10.5456 7.06802C8.62497 8.68137 7.31893 10.9093 6.85797 13.4446C6.47384 15.4421 5.47509 17.2859 3.86174 18.592C1.94108 20.2053 0.635037 22.4333 0.174079 24.9686C-0.286879 27.427 0.174079 30.0391 1.48013 32.1902C2.47887 33.9572 2.863 36.0315 2.55569 38.029C2.09474 40.4875 2.55569 43.0996 3.86174 45.2507C5.09096 47.4018 7.08845 49.092 9.47006 49.9371C11.3907 50.6285 13.0041 52.0114 14.0796 53.7784C15.3089 55.8527 17.1527 57.5429 19.4575 58.388C21.6854 59.3099 24.2207 59.3867 26.5255 58.6185C26.6792 58.5417 26.9096 58.5417 27.0633 58.4648C28.9839 57.7734 31.1351 57.7734 33.0557 58.4648C35.4374 59.3099 38.0495 59.3099 40.4311 58.4648C42.8127 57.6197 44.8102 55.9296 46.0394 53.7784C47.0381 52.0114 48.7283 50.6285 50.649 49.9371C53.0306 49.092 55.0281 47.4018 56.2573 45.2507C57.4865 43.0996 57.9475 40.4875 57.5633 38.029C57.5633 37.8754 57.4865 37.7217 57.4865 37.5681C57.256 35.6474 57.6402 33.8036 58.5621 32.1134C59.7913 29.9623 60.2523 27.3502 59.8681 24.8917C59.3303 22.4333 58.0243 20.2053 56.1036 18.592Z" fill="#FE6061" fill-opacity="0.2"/>
<path d="M42 42L18 18Z" fill="#FE6061" fill-opacity="0.2"/>
<path d="M42 42L18 18" stroke="#FE6061" stroke-width="4" stroke-linecap="round" stroke-linejoin="round"/>
<path d="M18 42L42 18Z" fill="#FE6061" fill-opacity="0.2"/>
<path d="M18 42L42 18" stroke="#FE6061" stroke-width="4" stroke-linecap="round" stroke-linejoin="round"/>
</svg>
