<svg width="28" height="28" viewBox="0 0 28 28" fill="none" xmlns="http://www.w3.org/2000/svg">
<path d="M26.1817 8.67627C25.4646 8.06675 24.9627 7.20631 24.7835 6.27415C24.5684 5.12689 23.9589 4.05131 23.0626 3.29841C22.1662 2.54551 21.0189 2.11528 19.8359 2.11528C18.8678 2.11528 17.9357 1.79262 17.2186 1.18313C16.3223 0.430227 15.1751 0 13.9919 0C12.8088 0 11.6615 0.430227 10.7652 1.18313C10.0482 1.79262 9.11601 2.11528 8.148 2.11528C6.96486 2.11528 5.81761 2.50966 4.92128 3.29841C4.02499 4.05131 3.4155 5.09101 3.20039 6.27415C3.02113 7.20631 2.55504 8.06675 1.80215 8.67627C0.905837 9.42914 0.29635 10.4689 0.0812368 11.652C-0.133877 12.7993 0.0812367 14.0182 0.690727 15.0221C1.15681 15.8467 1.33607 16.8147 1.19266 17.7469C0.977545 18.8942 1.19266 20.1131 1.80215 21.117C2.37578 22.1208 3.30794 22.9096 4.41936 23.304C5.31566 23.6266 6.06858 24.272 6.57048 25.0966C7.14415 26.0646 8.00459 26.8534 9.08017 27.2477C10.1199 27.678 11.303 27.7138 12.3786 27.3553C12.4503 27.3195 12.5578 27.3195 12.6295 27.2836C13.5258 26.9609 14.5297 26.9609 15.426 27.2836C16.5375 27.678 17.7564 27.678 18.8678 27.2836C19.9793 26.8892 20.9114 26.1005 21.4851 25.0966C21.9511 24.272 22.7399 23.6266 23.6362 23.304C24.7476 22.9096 25.6798 22.1208 26.2534 21.117C26.827 20.1131 27.0422 18.8942 26.8629 17.7469C26.8629 17.6752 26.827 17.6035 26.827 17.5318C26.7195 16.6355 26.8988 15.775 27.329 14.9863C27.9026 13.9824 28.1177 12.7634 27.9384 11.6161C27.6875 10.4689 27.078 9.42914 26.1817 8.67627Z" fill="#6070FE" fill-opacity="0.2"/>
<path d="M8 10L7.46967 9.46967C7.17678 9.76256 7.17678 10.2374 7.46967 10.5303L8 10ZM11 19.25C10.5858 19.25 10.25 19.5858 10.25 20C10.25 20.4142 10.5858 20.75 11 20.75V19.25ZM11.5303 7.53033C11.8232 7.23744 11.8232 6.76256 11.5303 6.46967C11.2374 6.17678 10.7626 6.17678 10.4697 6.46967L11.5303 7.53033ZM10.4697 13.5303C10.7626 13.8232 11.2374 13.8232 11.5303 13.5303C11.8232 13.2374 11.8232 12.7626 11.5303 12.4697L10.4697 13.5303ZM19 15L19.75 15L19.75 15L19 15ZM14 9.25H8V10.75H14V9.25ZM8.53033 10.5303L11.5303 7.53033L10.4697 6.46967L7.46967 9.46967L8.53033 10.5303ZM18.25 15C18.25 17.3472 16.3472 19.25 14 19.25V20.75C17.1756 20.75 19.75 18.1756 19.75 15H18.25ZM19.75 15C19.75 11.8244 17.1756 9.25 14 9.25V10.75C16.3472 10.75 18.25 12.6528 18.25 15L19.75 15ZM14 19.25H11V20.75H14V19.25ZM7.46967 10.5303L8.96967 12.0303L10.0303 10.9697L8.53033 9.46967L7.46967 10.5303ZM8.96967 12.0303L10.4697 13.5303L11.5303 12.4697L10.0303 10.9697L8.96967 12.0303Z" fill="#455EFF"/>
</svg>
