<svg width="94" height="94" viewBox="0 0 94 94" fill="none" xmlns="http://www.w3.org/2000/svg">
<circle cx="46.631" cy="46.631" r="46.631" fill="#1DB9AA" fill-opacity="0.2"/>
<path d="M46.6303 24.4258C34.3952 24.4258 24.425 34.3959 24.425 46.631C24.425 58.8661 34.3952 68.8362 46.6303 68.8362C58.8654 68.8362 68.8355 58.8661 68.8355 46.631C68.8355 34.3959 58.8654 24.4258 46.6303 24.4258ZM57.2444 41.5238L44.654 54.1142C44.3431 54.425 43.9212 54.6027 43.4771 54.6027C43.033 54.6027 42.6111 54.425 42.3003 54.1142L36.0162 47.8301C35.3722 47.1861 35.3722 46.1203 36.0162 45.4763C36.6601 44.8324 37.726 44.8324 38.3699 45.4763L43.4771 50.5835L54.8906 39.1701C55.5346 38.5261 56.6004 38.5261 57.2444 39.1701C57.8883 39.814 57.8883 40.8577 57.2444 41.5238Z" fill="#1DB9AA"/>
</svg>
