<svg width="60" height="60" viewBox="0 0 60 60" fill="none" xmlns="http://www.w3.org/2000/svg">
<path d="M56.1036 18.592C54.5671 17.2859 53.4915 15.4421 53.1074 13.4446C52.6465 10.9862 51.3404 8.68137 49.4198 7.06802C47.4991 5.45467 45.0406 4.53275 42.5054 4.53275C40.4311 4.53275 38.4336 3.84132 36.8971 2.53527C34.9764 0.921916 32.518 0 29.9827 0C27.4474 0 24.989 0.921916 23.0683 2.53527C21.5318 3.84132 19.5343 4.53275 17.46 4.53275C14.9247 4.53275 12.4663 5.37784 10.5456 7.06802C8.62497 8.68137 7.31893 10.9093 6.85797 13.4446C6.47384 15.4421 5.47509 17.2859 3.86174 18.592C1.94108 20.2053 0.635037 22.4333 0.174079 24.9686C-0.286879 27.427 0.174079 30.0391 1.48013 32.1902C2.47887 33.9572 2.863 36.0315 2.55569 38.029C2.09474 40.4875 2.55569 43.0996 3.86174 45.2507C5.09096 47.4018 7.08845 49.092 9.47006 49.9371C11.3907 50.6285 13.0041 52.0114 14.0796 53.7784C15.3089 55.8527 17.1527 57.5429 19.4575 58.388C21.6854 59.3099 24.2207 59.3867 26.5255 58.6185C26.6792 58.5417 26.9096 58.5417 27.0633 58.4648C28.9839 57.7734 31.1351 57.7734 33.0557 58.4648C35.4374 59.3099 38.0495 59.3099 40.4311 58.4648C42.8127 57.6197 44.8102 55.9296 46.0394 53.7784C47.0381 52.0114 48.7283 50.6285 50.649 49.9371C53.0306 49.092 55.0281 47.4018 56.2573 45.2507C57.4865 43.0996 57.9475 40.4875 57.5633 38.029C57.5633 37.8754 57.4865 37.7217 57.4865 37.5681C57.256 35.6474 57.6402 33.8036 58.5621 32.1134C59.7913 29.9623 60.2523 27.3502 59.8681 24.8917C59.3303 22.4333 58.0243 20.2053 56.1036 18.592Z" fill="#1DB9AA" fill-opacity="0.2"/>
<path d="M25.814 32.7284L38.0294 20.513C38.4135 20.1289 38.8745 19.9752 39.4891 19.9752C40.1037 19.9752 40.5647 20.1289 40.9488 20.513C41.3329 20.8971 41.4866 21.3581 41.4866 21.9727C41.4866 22.5873 41.3329 23.0483 40.9488 23.4324L27.2737 37.1075C26.8896 37.4916 26.3518 37.7221 25.814 37.7221C25.2762 37.7221 24.8153 37.4916 24.3543 37.1075L18.9765 31.7296C18.5924 31.3455 18.4387 30.8846 18.4387 30.2699C18.4387 29.6553 18.5924 29.1944 18.9765 28.8102C19.3606 28.4261 19.8216 28.2725 20.4362 28.2725C21.0508 28.2725 21.5118 28.4261 21.8959 28.8102L25.814 32.7284Z" fill="#1DB9AA"/>
</svg>
