<svg width="16" height="14" viewBox="0 0 16 14" fill="none" xmlns="http://www.w3.org/2000/svg">
<path d="M10.5606 7.12843C10.5606 8.54488 9.41598 9.68949 7.99952 9.68949C6.58307 9.68949 5.43848 8.54488 5.43848 7.12843C5.43848 5.71198 6.58307 4.56738 7.99952 4.56738C9.41598 4.56738 10.5606 5.71198 10.5606 7.12843Z" stroke="#1e36ce" stroke-width="1.2" stroke-linecap="round" stroke-linejoin="round"/>
<path d="M8 13.0446C10.5253 13.0446 12.8789 11.5567 14.5171 8.98129C15.161 7.9726 15.161 6.27715 14.5171 5.26844C12.8789 2.69307 10.5253 1.20508 8 1.20508C5.4747 1.20508 3.1211 2.69307 1.48288 5.26844C0.839039 6.27715 0.839039 7.9726 1.48288 8.98129C3.1211 11.5567 5.4747 13.0446 8 13.0446Z" stroke="#1e36ce" stroke-width="1.2" stroke-linecap="round" stroke-linejoin="round"/>
</svg>
