<svg width="484" height="444" viewBox="0 0 484 444" fill="none" xmlns="http://www.w3.org/2000/svg">
<path d="M426.711 67.5344C426.711 103.605 398.372 133.081 362.753 134.981C361.569 135.019 360.384 135.052 359.166 135.052C358.698 135.052 358.268 135.052 357.801 135.017H357.48C346.766 134.74 336.272 131.922 326.862 126.797C317.451 121.671 309.394 114.383 303.354 105.535C301.187 102.328 299.291 98.9452 297.687 95.4229C296.206 92.1867 294.982 88.8392 294.027 85.4113C293.705 84.2621 293.417 83.0816 293.192 81.8968C292.789 80.1941 292.477 78.4708 292.259 76.7346C291.826 73.6814 291.611 70.6014 291.614 67.5177C291.614 30.2266 321.854 2.56633e-05 359.161 2.56633e-05C362.269 -0.00271048 365.374 0.213346 368.451 0.646602C371.988 1.11403 375.478 1.88158 378.885 2.94092C382.596 4.05644 386.198 5.5086 389.645 7.27928C400.779 12.9279 410.132 21.5441 416.672 32.1752C423.211 42.8062 426.682 55.0379 426.7 67.5177L426.711 67.5344Z" fill="#1DB9AA"/>
<path d="M322.58 98.7167C322.148 99.4238 322.371 100.347 323.078 100.779C323.785 101.21 324.708 100.987 325.14 100.28L322.58 98.7167ZM392.814 100.281C393.246 100.988 394.169 101.211 394.876 100.779C395.583 100.348 395.807 99.4245 395.375 98.7174L392.814 100.281ZM381.357 57.7194C381.357 69.3385 371.688 78.8216 359.68 78.8216V81.8216C373.273 81.8216 384.357 71.066 384.357 57.7194H381.357ZM359.68 78.8216C347.672 78.8216 338.002 69.3385 338.002 57.7194H335.002C335.002 71.066 346.086 81.8216 359.68 81.8216V78.8216ZM338.002 57.7194C338.002 46.1004 347.672 36.6173 359.68 36.6173V33.6173C346.086 33.6173 335.002 44.3729 335.002 57.7194H338.002ZM359.68 36.6173C371.688 36.6173 381.357 46.1004 381.357 57.7194H384.357C384.357 44.3729 373.273 33.6173 359.68 33.6173V36.6173ZM325.14 100.28C328.56 94.6801 333.483 90.02 339.423 86.7762L337.985 84.1432C331.597 87.6316 326.281 92.655 322.58 98.7167L325.14 100.28ZM339.423 86.7762C345.364 83.5321 352.108 81.8215 358.978 81.8216L358.978 78.8216C351.613 78.8215 344.373 80.655 337.985 84.1432L339.423 86.7762ZM358.978 81.8216C365.847 81.8216 372.591 83.5324 378.532 86.7766L379.97 84.1436C373.582 80.6552 366.343 78.8216 358.978 78.8216L358.978 81.8216ZM378.532 86.7766C384.472 90.0205 389.395 94.6807 392.814 100.281L395.375 98.7174C391.674 92.6556 386.358 87.6322 379.97 84.1436L378.532 86.7766Z" fill="white"/>
<path d="M395.77 291.099V292H395.757C395.766 291.704 395.77 291.4 395.77 291.099Z" fill="url(#paint0_linear_3_852)"/>
<path d="M334.742 126.626V337.317H174.891C174.721 337.32 174.551 337.314 174.382 337.299C174.358 337.301 174.333 337.301 174.309 337.299C158.548 337.299 145.158 328.539 142.27 315.626C141.88 313.888 141.685 312.111 141.688 310.33C141.688 304.073 141.674 287.387 141.657 266.398C141.621 220.781 141.557 154.836 141.53 131.463V122.846C141.532 122.473 141.484 122.102 141.388 121.741C140.795 114.98 138.267 108.533 134.106 103.169C129.945 97.8063 124.327 93.7543 117.923 91.4977C114.745 90.3648 111.416 89.709 108.045 89.5517L107.886 89.4871H297.609C302.487 89.4884 307.317 90.4501 311.823 92.3173C316.329 94.1845 320.423 96.9205 323.871 100.369C327.319 103.818 330.054 107.912 331.919 112.417C333.784 116.922 334.743 121.75 334.742 126.626Z" fill="white"/>
<path d="M403.993 300.191C403.993 320.696 387.365 337.317 366.851 337.317H182.537C198.015 333.544 209.517 319.589 209.517 302.961V300.193L403.993 300.191Z" fill="#D2D6F4"/>
<path d="M141.657 266.394H35.3941C37.6648 266.398 39.9302 266.176 42.1569 265.731C50.2117 264.165 57.4706 259.847 62.6894 253.518C67.9081 247.188 70.7617 239.241 70.7608 231.039V124.86C70.7606 120.217 71.6753 115.619 73.4529 111.329C75.2305 107.039 77.836 103.141 81.1207 99.8577C84.4055 96.5744 88.3051 93.97 92.5969 92.1932C96.8886 90.4164 101.489 89.502 106.134 89.5023H106.157C106.797 89.5023 107.421 89.5252 108.035 89.567C111.406 89.7242 114.735 90.38 117.913 91.513C124.317 93.7695 129.935 97.8216 134.096 103.185C138.257 108.548 140.785 114.995 141.377 121.756C141.478 122.778 141.519 123.825 141.519 124.866C141.519 129.117 141.538 139.827 141.547 154.108C141.547 159.713 141.561 165.874 141.565 172.407V189.837C141.565 197.279 141.584 204.971 141.588 212.709V219.592C141.603 231.504 141.611 243.37 141.62 254.472V262.064C141.657 263.527 141.657 264.968 141.657 266.394Z" fill="#D2D6F4"/>
<path opacity="0.42" d="M141.657 266.394H131.205C131.163 215.128 131.092 138.195 131.074 124.857V122.846C131.076 122.473 131.028 122.101 130.932 121.741C130.339 114.98 127.811 108.532 123.65 103.169C119.489 97.8062 113.871 93.7542 107.467 91.4976C105.346 90.7421 103.156 90.1985 100.928 89.8749C102.655 89.6172 104.398 89.4882 106.144 89.489H106.167C106.808 89.489 107.432 89.512 108.045 89.5537C111.416 89.711 114.745 90.3667 117.923 91.4997C124.327 93.7562 129.945 97.8083 134.106 103.171C138.267 108.535 140.795 114.982 141.388 121.743C141.488 122.765 141.53 123.812 141.53 124.853C141.53 129.104 141.549 139.814 141.557 154.095C141.557 159.699 141.571 165.861 141.576 172.393V189.824C141.576 197.266 141.594 204.958 141.599 212.696V219.579C141.613 231.491 141.622 243.357 141.63 254.459V262.051C141.657 263.526 141.657 264.967 141.657 266.394Z" fill="#BBC2F5"/>
<path d="M70.7627 142.365V230.915C70.7635 239.118 67.9097 247.066 62.6906 253.396C57.4715 259.726 50.212 264.044 42.1567 265.61C39.9294 266.055 37.6632 266.277 35.3918 266.273H35.3709C25.9903 266.272 16.9942 262.547 10.3611 255.916C3.72803 249.286 0.0011066 240.294 0 230.918V142.365H70.7627Z" fill="white"/>
<path opacity="0.69" d="M297.111 147.172H185.225C182.21 147.172 179.766 149.615 179.766 152.628V159.901C179.766 162.915 182.21 165.358 185.225 165.358H297.111C300.126 165.358 302.57 162.915 302.57 159.901V152.628C302.57 149.615 300.126 147.172 297.111 147.172Z" fill="#C9CDF5"/>
<path opacity="0.69" d="M297.111 195.224H185.225C182.21 195.224 179.766 197.667 179.766 200.68V207.953C179.766 210.967 182.21 213.41 185.225 213.41H297.111C300.126 213.41 302.57 210.967 302.57 207.953V200.68C302.57 197.667 300.126 195.224 297.111 195.224Z" fill="#C9CDF5"/>
<path opacity="0.69" d="M297.111 243.278H185.225C182.21 243.278 179.766 245.721 179.766 248.734V256.007C179.766 259.021 182.21 261.464 185.225 261.464H297.111C300.126 261.464 302.57 259.021 302.57 256.007V248.734C302.57 245.721 300.126 243.278 297.111 243.278Z" fill="#C9CDF5"/>
<path d="M42 50H180V59H42V50Z" fill="white"/>
<path d="M42 29H180V38H42V29Z" fill="white"/>
<path opacity="0.8" d="M241.171 344.433L241.236 349.933C241.236 349.95 241.229 349.966 241.217 349.979C241.205 349.991 241.189 349.997 241.171 349.997C241.154 349.997 241.138 349.991 241.126 349.979C241.114 349.966 241.107 349.95 241.107 349.933L241.171 344.433ZM241.286 355.433L241.334 360.933C241.334 360.977 241.317 361.02 241.285 361.051C241.254 361.082 241.212 361.1 241.167 361.1C241.123 361.1 241.081 361.082 241.049 361.051C241.018 361.02 241 360.977 241 360.933L241.048 355.433C241.048 355.401 241.061 355.371 241.083 355.349C241.105 355.327 241.136 355.314 241.167 355.314C241.199 355.314 241.229 355.327 241.251 355.349C241.274 355.371 241.286 355.401 241.286 355.433ZM241.38 366.433L241.428 371.933C241.431 371.97 241.427 372.007 241.415 372.042C241.403 372.076 241.384 372.108 241.36 372.136C241.335 372.163 241.305 372.184 241.271 372.199C241.237 372.214 241.201 372.222 241.164 372.222C241.127 372.222 241.091 372.214 241.057 372.199C241.024 372.184 240.993 372.163 240.969 372.136C240.944 372.108 240.925 372.076 240.913 372.042C240.901 372.007 240.897 371.97 240.9 371.933L240.948 366.433C240.948 366.376 240.971 366.321 241.011 366.28C241.052 366.24 241.107 366.217 241.164 366.217C241.221 366.217 241.276 366.24 241.317 366.28C241.357 366.321 241.38 366.376 241.38 366.433ZM241.466 377.433C241.466 377.892 241.466 378.353 241.478 378.802C241.491 379.25 241.514 379.707 241.551 380.157C241.624 381.059 241.748 381.956 241.923 382.844C241.94 382.929 241.922 383.017 241.874 383.089C241.826 383.161 241.751 383.211 241.666 383.228C241.581 383.244 241.493 383.227 241.421 383.179C241.349 383.131 241.299 383.056 241.282 382.971C241.112 382.057 240.995 381.134 240.929 380.207C240.896 379.744 240.877 379.281 240.871 378.816V377.435C240.871 377.357 240.902 377.282 240.958 377.226C241.013 377.17 241.089 377.139 241.167 377.139C241.246 377.139 241.321 377.17 241.377 377.226C241.432 377.282 241.464 377.357 241.464 377.435L241.466 377.433ZM243.565 388.002C244.307 389.65 245.234 391.209 246.328 392.649C246.358 392.689 246.381 392.735 246.394 392.784C246.406 392.833 246.41 392.885 246.403 392.935C246.396 392.985 246.379 393.033 246.353 393.077C246.328 393.121 246.294 393.159 246.253 393.19C246.213 393.221 246.167 393.243 246.118 393.256C246.069 393.269 246.018 393.272 245.967 393.265C245.917 393.258 245.869 393.242 245.825 393.216C245.781 393.19 245.743 393.156 245.712 393.116C244.601 391.62 243.663 390.003 242.916 388.296C242.885 388.211 242.888 388.118 242.923 388.035C242.959 387.952 243.025 387.885 243.107 387.849C243.19 387.812 243.283 387.808 243.368 387.838C243.454 387.867 243.525 387.928 243.567 388.008L243.565 388.002ZM250.056 396.553C251.44 397.71 252.951 398.706 254.559 399.523C254.611 399.55 254.658 399.586 254.696 399.631C254.734 399.675 254.763 399.726 254.781 399.782C254.799 399.837 254.806 399.896 254.801 399.954C254.797 400.012 254.781 400.069 254.755 400.121C254.728 400.173 254.692 400.219 254.647 400.257C254.603 400.295 254.552 400.324 254.496 400.342C254.384 400.379 254.262 400.369 254.157 400.316C252.499 399.451 250.945 398.402 249.524 397.187C249.46 397.112 249.425 397.016 249.425 396.916C249.425 396.817 249.461 396.721 249.525 396.646C249.59 396.57 249.679 396.521 249.777 396.505C249.876 396.49 249.976 396.51 250.061 396.562L250.056 396.553ZM259.605 401.407C261.353 401.842 263.144 402.078 264.945 402.11C265.073 402.112 265.194 402.165 265.283 402.257C265.372 402.349 265.421 402.472 265.418 402.6C265.416 402.728 265.363 402.849 265.271 402.938C265.179 403.027 265.056 403.076 264.928 403.073C263.056 403.03 261.196 402.774 259.382 402.312C259.267 402.277 259.17 402.2 259.111 402.095C259.051 401.991 259.035 401.868 259.064 401.751C259.093 401.635 259.166 401.534 259.268 401.47C259.369 401.406 259.491 401.383 259.609 401.407H259.605ZM270.437 402.099L275.939 402.085C276.009 402.08 276.08 402.09 276.146 402.114C276.212 402.138 276.272 402.175 276.323 402.223C276.374 402.271 276.415 402.329 276.443 402.393C276.471 402.457 276.485 402.527 276.485 402.597C276.485 402.667 276.471 402.736 276.443 402.801C276.415 402.865 276.374 402.923 276.323 402.971C276.272 403.019 276.212 403.056 276.146 403.08C276.08 403.103 276.009 403.113 275.939 403.109L270.437 403.094C270.305 403.094 270.178 403.042 270.085 402.949C269.992 402.855 269.939 402.729 269.939 402.597C269.939 402.465 269.992 402.338 270.085 402.245C270.178 402.152 270.305 402.099 270.437 402.099ZM281.444 402.074H286.946C287.086 402.074 287.221 402.13 287.32 402.229C287.419 402.328 287.474 402.462 287.474 402.602C287.474 402.742 287.419 402.876 287.32 402.975C287.221 403.074 287.086 403.13 286.946 403.13H281.444C281.306 403.13 281.173 403.075 281.075 402.977C280.977 402.879 280.922 402.747 280.922 402.608C280.922 402.47 280.977 402.337 281.075 402.24C281.173 402.142 281.306 402.087 281.444 402.087V402.074ZM292.447 402.064H297.949C298.086 402.072 298.214 402.133 298.308 402.232C298.402 402.332 298.454 402.464 298.454 402.601C298.454 402.738 298.402 402.87 298.308 402.969C298.214 403.069 298.086 403.13 297.949 403.138H292.447C292.305 403.138 292.17 403.082 292.07 402.982C291.97 402.882 291.914 402.746 291.914 402.605C291.914 402.464 291.97 402.328 292.07 402.228C292.17 402.128 292.305 402.072 292.447 402.072V402.064ZM303.452 402.053H308.954C309.097 402.053 309.234 402.11 309.335 402.211C309.436 402.312 309.493 402.449 309.493 402.592C309.493 402.734 309.436 402.871 309.335 402.972C309.234 403.073 309.097 403.13 308.954 403.13H303.452C303.308 403.13 303.17 403.073 303.068 402.971C302.967 402.869 302.909 402.731 302.909 402.587C302.909 402.444 302.967 402.306 303.068 402.204C303.17 402.102 303.308 402.045 303.452 402.045V402.053ZM314.459 402.062H319.962C320.102 402.062 320.236 402.118 320.336 402.217C320.435 402.316 320.49 402.45 320.49 402.591C320.49 402.731 320.435 402.865 320.336 402.964C320.236 403.064 320.102 403.119 319.962 403.119H314.459C314.386 403.124 314.313 403.113 314.245 403.089C314.176 403.064 314.113 403.025 314.06 402.976C314.007 402.926 313.964 402.865 313.935 402.798C313.906 402.731 313.891 402.659 313.891 402.586C313.891 402.513 313.906 402.441 313.935 402.374C313.964 402.307 314.007 402.247 314.06 402.197C314.113 402.147 314.176 402.109 314.245 402.084C314.313 402.059 314.386 402.049 314.459 402.053V402.062ZM325.472 402.072H330.975C331.112 402.072 331.243 402.127 331.339 402.223C331.436 402.32 331.49 402.451 331.49 402.587C331.49 402.724 331.436 402.855 331.339 402.952C331.243 403.048 331.112 403.103 330.975 403.103H325.472C325.342 403.091 325.221 403.031 325.133 402.934C325.044 402.838 324.995 402.712 324.995 402.581C324.995 402.45 325.044 402.324 325.133 402.228C325.221 402.131 325.342 402.071 325.472 402.06V402.072ZM336.469 402.097L341.972 402.112C342.1 402.112 342.223 402.163 342.314 402.254C342.405 402.344 342.456 402.467 342.456 402.596C342.456 402.724 342.405 402.847 342.314 402.938C342.223 403.029 342.1 403.08 341.972 403.08L336.469 403.094C336.336 403.094 336.209 403.042 336.116 402.948C336.022 402.854 335.969 402.727 335.969 402.595C335.969 402.462 336.022 402.335 336.116 402.242C336.209 402.148 336.336 402.095 336.469 402.095V402.097ZM347.474 402.129L352.977 402.147C353.096 402.147 353.21 402.195 353.295 402.279C353.379 402.363 353.426 402.478 353.426 402.597C353.426 402.716 353.379 402.83 353.295 402.915C353.21 402.999 353.096 403.046 352.977 403.046L347.474 403.065C347.35 403.065 347.23 403.016 347.142 402.928C347.054 402.84 347.005 402.72 347.005 402.596C347.005 402.471 347.054 402.352 347.142 402.264C347.23 402.176 347.35 402.126 347.474 402.126V402.129ZM358.479 402.177L363.982 402.206C364.08 402.213 364.172 402.257 364.239 402.329C364.306 402.401 364.343 402.496 364.343 402.595C364.343 402.693 364.306 402.788 364.239 402.86C364.172 402.932 364.08 402.977 363.982 402.984L358.479 403.013C358.368 403.013 358.262 402.969 358.184 402.891C358.106 402.813 358.062 402.706 358.062 402.596C358.062 402.485 358.106 402.379 358.184 402.301C358.262 402.223 358.368 402.179 358.479 402.179V402.177ZM369.484 402.237L374.987 402.266C375.074 402.266 375.158 402.301 375.22 402.363C375.282 402.425 375.316 402.508 375.316 402.596C375.316 402.683 375.282 402.767 375.22 402.829C375.158 402.891 375.074 402.925 374.987 402.925L369.484 402.955C369.389 402.955 369.297 402.917 369.23 402.849C369.162 402.782 369.124 402.69 369.124 402.595C369.124 402.499 369.162 402.408 369.23 402.34C369.297 402.273 369.389 402.235 369.484 402.235V402.237ZM380.489 402.295L385.992 402.327C386.063 402.327 386.132 402.355 386.182 402.406C386.232 402.456 386.261 402.524 386.261 402.596C386.261 402.667 386.232 402.736 386.182 402.786C386.132 402.836 386.063 402.865 385.992 402.865L380.489 402.896C380.409 402.896 380.333 402.864 380.277 402.808C380.22 402.752 380.189 402.675 380.189 402.596C380.189 402.516 380.22 402.44 380.277 402.383C380.333 402.327 380.409 402.295 380.489 402.295ZM391.494 402.377L396.997 402.425C397.042 402.425 397.086 402.443 397.118 402.475C397.15 402.507 397.168 402.55 397.168 402.596C397.168 402.641 397.15 402.685 397.118 402.717C397.086 402.749 397.042 402.767 396.997 402.767L391.494 402.815C391.439 402.809 391.389 402.784 391.352 402.743C391.315 402.703 391.294 402.65 391.294 402.595C391.294 402.54 391.315 402.487 391.352 402.446C391.389 402.405 391.439 402.38 391.494 402.375V402.377ZM402.499 402.473L408.002 402.525C408.018 402.528 408.033 402.536 408.044 402.549C408.055 402.562 408.061 402.578 408.061 402.595C408.061 402.611 408.055 402.628 408.044 402.64C408.033 402.653 408.018 402.662 408.002 402.665L402.499 402.717C402.467 402.717 402.435 402.704 402.412 402.681C402.389 402.658 402.376 402.626 402.376 402.594C402.376 402.561 402.389 402.53 402.412 402.507C402.435 402.484 402.467 402.471 402.499 402.471V402.473ZM413.348 149.58L413.444 155.08C413.44 155.103 413.429 155.124 413.411 155.139C413.394 155.154 413.372 155.162 413.349 155.162C413.326 155.162 413.304 155.154 413.286 155.139C413.269 155.124 413.257 155.103 413.254 155.08L413.348 149.58ZM413.517 160.58L413.59 166.081C413.59 166.145 413.564 166.206 413.519 166.252C413.473 166.297 413.412 166.322 413.348 166.322C413.283 166.322 413.222 166.297 413.177 166.252C413.131 166.206 413.106 166.145 413.106 166.081L413.179 160.58C413.179 160.536 413.196 160.493 413.228 160.461C413.26 160.429 413.303 160.411 413.348 160.411C413.393 160.411 413.436 160.429 413.467 160.461C413.499 160.493 413.517 160.536 413.517 160.58ZM413.652 171.581L413.705 177.081C413.698 177.17 413.657 177.254 413.591 177.315C413.525 177.376 413.439 177.41 413.349 177.41C413.259 177.41 413.172 177.376 413.106 177.315C413.04 177.254 413 177.17 412.993 177.081L413.045 171.581C413.045 171.5 413.077 171.423 413.134 171.366C413.191 171.309 413.268 171.277 413.349 171.277C413.429 171.277 413.507 171.309 413.563 171.366C413.62 171.423 413.652 171.5 413.652 171.581ZM413.738 182.581L413.775 188.081C413.775 188.197 413.729 188.308 413.647 188.39C413.565 188.472 413.454 188.518 413.338 188.518C413.222 188.518 413.111 188.472 413.029 188.39C412.947 188.308 412.901 188.197 412.901 188.081L412.939 182.581C412.939 182.475 412.981 182.374 413.055 182.299C413.13 182.224 413.232 182.182 413.337 182.182C413.443 182.182 413.544 182.224 413.619 182.299C413.694 182.374 413.736 182.475 413.736 182.581H413.738ZM413.817 193.581L413.84 199.081C413.832 199.206 413.777 199.323 413.685 199.408C413.594 199.494 413.474 199.541 413.349 199.541C413.224 199.541 413.103 199.494 413.012 199.408C412.921 199.323 412.865 199.206 412.857 199.081L412.88 193.581C412.88 193.457 412.93 193.338 413.018 193.25C413.105 193.162 413.225 193.113 413.349 193.113C413.473 193.113 413.592 193.162 413.68 193.25C413.768 193.338 413.817 193.457 413.817 193.581ZM413.863 204.581L413.874 210.081C413.883 210.155 413.876 210.231 413.855 210.302C413.833 210.373 413.796 210.439 413.746 210.495C413.697 210.551 413.636 210.596 413.568 210.627C413.5 210.657 413.427 210.673 413.352 210.673C413.277 210.673 413.203 210.657 413.135 210.627C413.067 210.596 413.007 210.551 412.957 210.495C412.908 210.439 412.871 210.373 412.849 210.302C412.827 210.231 412.821 210.155 412.83 210.081L412.841 204.581C412.849 204.451 412.907 204.328 413.002 204.238C413.098 204.149 413.224 204.099 413.355 204.099C413.486 204.099 413.612 204.149 413.708 204.238C413.803 204.328 413.861 204.451 413.869 204.581H413.863ZM413.882 215.584V221.084C413.882 221.227 413.825 221.365 413.723 221.466C413.622 221.568 413.484 221.625 413.34 221.625C413.197 221.625 413.059 221.568 412.958 221.466C412.856 221.365 412.799 221.227 412.799 221.084V215.584C412.807 215.448 412.867 215.321 412.966 215.228C413.065 215.135 413.196 215.083 413.332 215.083C413.468 215.083 413.599 215.135 413.698 215.228C413.797 215.321 413.857 215.448 413.865 215.584H413.882ZM413.84 226.615C413.726 228.488 413.399 230.341 412.866 232.14C412.823 232.272 412.731 232.382 412.609 232.446C412.486 232.511 412.344 232.525 412.211 232.486C412.078 232.446 411.966 232.357 411.899 232.236C411.831 232.116 411.814 231.973 411.85 231.84C412.355 230.117 412.663 228.343 412.768 226.55C412.77 226.479 412.787 226.408 412.817 226.343C412.847 226.278 412.89 226.22 412.943 226.172C412.996 226.124 413.058 226.086 413.126 226.063C413.194 226.039 413.265 226.028 413.337 226.033C413.409 226.037 413.479 226.055 413.543 226.087C413.607 226.118 413.665 226.163 413.712 226.217C413.759 226.271 413.795 226.334 413.817 226.402C413.839 226.47 413.848 226.542 413.842 226.613L413.84 226.615ZM410.666 237.3C409.74 238.93 408.63 240.448 407.357 241.824C407.264 241.912 407.142 241.961 407.014 241.962C406.887 241.963 406.763 241.916 406.669 241.83C406.575 241.743 406.517 241.625 406.507 241.498C406.497 241.371 406.535 241.244 406.614 241.144C407.821 239.812 408.875 238.35 409.759 236.785C409.827 236.665 409.941 236.576 410.074 236.539C410.208 236.502 410.351 236.52 410.471 236.588C410.592 236.656 410.68 236.77 410.717 236.903C410.754 237.037 410.737 237.18 410.668 237.3H410.666ZM403.119 245.489C401.575 246.546 399.915 247.425 398.171 248.107C398.06 248.146 397.938 248.14 397.83 248.091C397.722 248.042 397.638 247.954 397.595 247.844C397.551 247.734 397.552 247.612 397.597 247.502C397.642 247.393 397.727 247.305 397.836 247.258C399.507 246.587 401.097 245.728 402.574 244.699C402.626 244.662 402.685 244.637 402.746 244.623C402.808 244.61 402.872 244.608 402.934 244.619C402.996 244.63 403.055 244.654 403.109 244.688C403.162 244.722 403.208 244.766 403.244 244.817C403.28 244.869 403.306 244.928 403.32 244.989C403.333 245.051 403.334 245.115 403.323 245.177C403.312 245.239 403.289 245.298 403.255 245.352C403.221 245.405 403.177 245.451 403.125 245.487L403.119 245.489ZM392.765 249.521C391.842 249.653 390.912 249.733 389.979 249.761C389.514 249.775 389.044 249.771 388.59 249.761H387.214C387.114 249.761 387.017 249.721 386.946 249.649C386.875 249.578 386.835 249.482 386.835 249.381C386.835 249.28 386.875 249.184 386.946 249.113C387.017 249.041 387.114 249.001 387.214 249.001H388.59C389.051 249.001 389.499 249.001 389.95 248.976C390.852 248.937 391.75 248.848 392.642 248.707C392.697 248.699 392.753 248.701 392.806 248.714C392.86 248.727 392.911 248.751 392.956 248.784C393.001 248.817 393.039 248.858 393.067 248.905C393.096 248.952 393.115 249.005 393.124 249.06C393.132 249.115 393.13 249.171 393.117 249.224C393.104 249.278 393.08 249.329 393.047 249.374C393.015 249.418 392.973 249.456 392.926 249.485C392.879 249.514 392.826 249.533 392.771 249.542L392.765 249.521ZM381.71 249.709L376.207 249.654C376.138 249.648 376.074 249.617 376.027 249.565C375.98 249.514 375.954 249.447 375.954 249.378C375.954 249.309 375.98 249.242 376.027 249.19C376.074 249.139 376.138 249.108 376.207 249.102L381.71 249.047C381.798 249.047 381.882 249.082 381.944 249.144C382.006 249.206 382.041 249.29 382.041 249.378C382.041 249.466 382.006 249.55 381.944 249.612C381.882 249.674 381.798 249.709 381.71 249.709ZM370.705 249.583L365.202 249.51C365.167 249.51 365.134 249.497 365.109 249.472C365.085 249.447 365.071 249.414 365.071 249.379C365.071 249.344 365.085 249.311 365.109 249.286C365.134 249.261 365.167 249.248 365.202 249.248L370.705 249.175C370.76 249.175 370.813 249.197 370.852 249.236C370.891 249.275 370.913 249.328 370.913 249.383C370.913 249.438 370.891 249.492 370.852 249.531C370.813 249.57 370.76 249.592 370.705 249.592V249.583ZM359.694 249.425L357.046 249.377L359.694 249.329C359.706 249.329 359.718 249.334 359.727 249.343C359.736 249.352 359.742 249.364 359.742 249.377C359.742 249.39 359.736 249.402 359.727 249.411C359.718 249.42 359.706 249.425 359.694 249.425ZM181.047 291.1C179.212 291.138 177.378 291.188 175.544 291.213C175.514 291.213 175.485 291.201 175.464 291.18C175.443 291.159 175.431 291.13 175.431 291.1C175.431 291.07 175.443 291.042 175.464 291.02C175.485 290.999 175.514 290.987 175.544 290.987C177.378 291.013 179.212 291.061 181.047 291.1ZM170.039 291.302C168.205 291.33 166.371 291.371 164.537 291.384C164.466 291.378 164.399 291.345 164.351 291.292C164.302 291.24 164.275 291.171 164.275 291.099C164.275 291.028 164.302 290.959 164.351 290.906C164.399 290.853 164.466 290.821 164.537 290.814C166.371 290.827 168.205 290.871 170.039 290.896C170.085 290.907 170.125 290.933 170.153 290.97C170.182 291.006 170.197 291.052 170.197 291.098C170.197 291.145 170.182 291.19 170.153 291.226C170.125 291.263 170.085 291.289 170.039 291.3V291.302ZM159.034 291.44L153.532 291.496C153.432 291.489 153.338 291.444 153.27 291.371C153.202 291.298 153.164 291.201 153.164 291.101C153.164 291.001 153.202 290.905 153.27 290.831C153.338 290.758 153.432 290.713 153.532 290.706L159.034 290.762C159.125 290.762 159.211 290.798 159.275 290.862C159.339 290.926 159.374 291.012 159.374 291.102C159.374 291.192 159.339 291.279 159.275 291.343C159.211 291.406 159.125 291.442 159.034 291.442V291.44ZM148.029 291.551L142.527 291.582C142.404 291.574 142.289 291.52 142.205 291.43C142.121 291.34 142.074 291.222 142.074 291.099C142.074 290.976 142.121 290.858 142.205 290.768C142.289 290.679 142.404 290.624 142.527 290.616L148.029 290.648C148.149 290.648 148.264 290.695 148.348 290.779C148.433 290.864 148.48 290.979 148.48 291.098C148.48 291.218 148.433 291.332 148.348 291.417C148.264 291.501 148.149 291.549 148.029 291.549V291.551ZM137.024 291.611L131.522 291.626C131.448 291.635 131.373 291.629 131.301 291.607C131.23 291.585 131.164 291.548 131.108 291.499C131.052 291.449 131.007 291.389 130.976 291.321C130.946 291.253 130.93 291.179 130.93 291.104C130.93 291.03 130.946 290.956 130.976 290.888C131.007 290.82 131.052 290.759 131.108 290.71C131.164 290.661 131.23 290.624 131.301 290.602C131.373 290.58 131.448 290.573 131.522 290.583L137.024 290.597C137.16 290.597 137.29 290.651 137.386 290.747C137.482 290.843 137.536 290.973 137.536 291.108C137.536 291.244 137.482 291.374 137.386 291.47C137.29 291.566 137.16 291.619 137.024 291.619V291.611ZM126.019 291.636H123.277C122.375 291.65 121.47 291.699 120.565 291.784C120.421 291.798 120.279 291.754 120.168 291.662C120.057 291.57 119.987 291.438 119.973 291.295C119.96 291.152 120.004 291.009 120.095 290.898C120.187 290.787 120.319 290.717 120.463 290.704C121.39 290.619 122.32 290.57 123.25 290.556H126.009C126.151 290.556 126.287 290.612 126.388 290.713C126.489 290.813 126.545 290.95 126.545 291.092C126.545 291.234 126.489 291.37 126.388 291.471C126.287 291.571 126.151 291.628 126.009 291.628L126.019 291.636ZM115.235 292.706C113.484 293.15 111.769 293.73 110.109 294.441C109.981 294.486 109.841 294.481 109.717 294.427C109.594 294.373 109.495 294.273 109.442 294.149C109.389 294.025 109.385 293.885 109.431 293.758C109.478 293.631 109.571 293.526 109.691 293.465C111.402 292.728 113.169 292.126 114.975 291.665C115.112 291.634 115.256 291.657 115.376 291.73C115.496 291.804 115.583 291.921 115.618 292.057C115.652 292.194 115.632 292.338 115.561 292.46C115.491 292.581 115.375 292.671 115.24 292.708L115.235 292.706ZM105.313 296.955C103.782 297.917 102.328 298.996 100.965 300.184C100.861 300.274 100.725 300.32 100.588 300.311C100.45 300.302 100.322 300.238 100.231 300.135C100.141 300.031 100.095 299.895 100.104 299.758C100.113 299.62 100.177 299.492 100.28 299.401C101.682 298.175 103.177 297.059 104.752 296.064C104.81 296.025 104.876 295.998 104.945 295.985C105.014 295.972 105.085 295.972 105.154 295.987C105.222 296.001 105.287 296.03 105.345 296.07C105.403 296.11 105.452 296.161 105.489 296.22C105.527 296.28 105.552 296.346 105.563 296.415C105.575 296.485 105.572 296.555 105.556 296.624C105.539 296.692 105.51 296.756 105.468 296.813C105.426 296.869 105.374 296.917 105.313 296.953V296.955ZM97.1587 304.038C95.9911 305.42 94.9328 306.891 93.9933 308.437C93.9269 308.548 93.8192 308.627 93.694 308.659C93.5688 308.69 93.4362 308.67 93.3255 308.604C93.2148 308.537 93.1351 308.43 93.1038 308.305C93.0725 308.179 93.0922 308.047 93.1586 307.936C94.1152 306.341 95.1945 304.822 96.3867 303.394C96.4276 303.339 96.4792 303.294 96.5383 303.26C96.5974 303.226 96.6627 303.204 96.7304 303.196C96.7981 303.189 96.8666 303.195 96.9319 303.214C96.9972 303.233 97.0579 303.266 97.1102 303.309C97.1626 303.353 97.2055 303.407 97.2365 303.467C97.2674 303.528 97.2857 303.594 97.2903 303.662C97.2948 303.73 97.2855 303.798 97.2629 303.863C97.2403 303.927 97.2048 303.986 97.1587 304.036V304.038ZM91.5456 313.276C90.8591 314.951 90.3011 316.676 89.8763 318.436C89.8473 318.549 89.7752 318.645 89.6755 318.705C89.5758 318.765 89.4565 318.783 89.3435 318.756C89.2305 318.728 89.1328 318.657 89.0716 318.558C89.0104 318.46 88.9907 318.341 89.0166 318.227C89.4286 316.414 89.9868 314.638 90.6859 312.915C90.7074 312.856 90.7405 312.802 90.7833 312.756C90.8262 312.71 90.8778 312.673 90.9352 312.648C90.9925 312.622 91.0544 312.609 91.1172 312.608C91.18 312.607 91.2423 312.618 91.3005 312.642C91.3587 312.665 91.4116 312.7 91.4559 312.745C91.5003 312.789 91.5352 312.842 91.5587 312.9C91.5822 312.958 91.5936 313.021 91.5925 313.083C91.5913 313.146 91.5775 313.208 91.5519 313.265L91.5456 313.276ZM89.027 323.796C88.954 324.699 88.9185 325.605 88.9143 326.508L88.8976 329.259C88.8976 329.358 88.8583 329.453 88.7882 329.523C88.7182 329.593 88.6232 329.632 88.5241 329.632C88.4251 329.632 88.3301 329.593 88.26 329.523C88.19 329.453 88.1506 329.358 88.1506 329.259L88.1339 326.508C88.1339 325.584 88.1506 324.656 88.2132 323.73C88.2396 323.638 88.2965 323.558 88.3745 323.504C88.4525 323.449 88.5469 323.423 88.642 323.429C88.7371 323.435 88.8271 323.474 88.8971 323.538C88.9672 323.603 89.013 323.69 89.027 323.784V323.796ZM88.8643 334.759L88.8309 340.259C88.8309 340.34 88.7987 340.418 88.7413 340.475C88.684 340.532 88.6062 340.565 88.5252 340.565C88.4441 340.565 88.3663 340.532 88.309 340.475C88.2517 340.418 88.2195 340.34 88.2195 340.259L88.1861 334.759C88.1824 334.712 88.1885 334.665 88.2038 334.621C88.2192 334.577 88.2436 334.536 88.2754 334.502C88.3073 334.467 88.3459 334.44 88.3889 334.421C88.4319 334.402 88.4783 334.392 88.5252 334.392C88.5721 334.392 88.6185 334.402 88.6615 334.421C88.7045 334.44 88.7431 334.467 88.7749 334.502C88.8068 334.536 88.8312 334.577 88.8465 334.621C88.8619 334.665 88.8679 334.712 88.8643 334.759ZM88.7954 345.765L88.7391 351.266C88.7391 351.323 88.7164 351.377 88.6761 351.417C88.6358 351.458 88.5811 351.48 88.5241 351.48C88.4671 351.48 88.4125 351.458 88.3722 351.417C88.3319 351.377 88.3092 351.323 88.3092 351.266L88.2529 345.765C88.2529 345.694 88.2815 345.625 88.3323 345.574C88.3832 345.523 88.4522 345.494 88.5241 345.494C88.5961 345.494 88.6651 345.523 88.716 345.574C88.7668 345.625 88.7954 345.694 88.7954 345.765C88.7954 345.765 88.7954 345.763 88.7954 345.765ZM88.6848 356.766L88.6285 362.266C88.6285 362.293 88.6175 362.32 88.5979 362.34C88.5784 362.359 88.5518 362.37 88.5241 362.37C88.4965 362.37 88.4699 362.359 88.4504 362.34C88.4308 362.32 88.4198 362.293 88.4198 362.266L88.3635 356.766C88.3635 356.723 88.3803 356.683 88.4102 356.653C88.4402 356.623 88.4807 356.606 88.5231 356.606C88.5654 356.606 88.606 356.623 88.636 356.653C88.6659 356.683 88.6827 356.723 88.6827 356.766H88.6848ZM88.5596 367.766L88.5241 370.308L88.4887 367.766C88.4874 367.761 88.4873 367.755 88.4884 367.75C88.4895 367.745 88.4918 367.74 88.4951 367.736C88.4985 367.731 88.5027 367.728 88.5075 367.725C88.5124 367.723 88.5177 367.722 88.5231 367.722C88.5285 367.722 88.5338 367.723 88.5386 367.725C88.5435 367.728 88.5477 367.731 88.551 367.736C88.5543 367.74 88.5567 367.745 88.5578 367.75C88.5589 367.755 88.5588 367.761 88.5575 367.766H88.5596Z" fill="#735CD2"/>
<path d="M449.56 426.97L456.968 412.109C457.018 412.008 457.093 411.921 457.185 411.855C457.278 411.789 457.385 411.747 457.497 411.732C457.609 411.717 457.724 411.729 457.83 411.769C457.936 411.808 458.031 411.873 458.107 411.957L470.516 425.905C470.623 426.025 470.753 426.123 470.897 426.193C471.042 426.263 471.199 426.303 471.36 426.313C471.52 426.322 471.681 426.3 471.833 426.247C471.984 426.194 472.124 426.112 472.244 426.005L477.98 420.905C478.101 420.798 478.199 420.669 478.27 420.524C478.34 420.38 478.381 420.223 478.391 420.062C478.401 419.902 478.379 419.741 478.326 419.589C478.274 419.437 478.192 419.296 478.085 419.176L465.646 405.201C465.569 405.115 465.515 405.01 465.489 404.897C465.463 404.783 465.466 404.665 465.497 404.554C465.529 404.442 465.587 404.339 465.668 404.256C465.75 404.173 465.85 404.112 465.961 404.077L482.181 399.124C482.456 399.056 482.702 398.903 482.884 398.686C483.066 398.47 483.174 398.201 483.192 397.919C483.211 397.636 483.139 397.356 482.987 397.117C482.835 396.878 482.611 396.694 482.348 396.592L435.515 378.141C434.407 377.665 433.236 378.65 433.583 379.76L446.904 426.793C447.286 427.99 449.024 428.111 449.56 426.97Z" fill="#696385"/>
<path opacity="0.11" d="M92.3929 402.596C92.3929 425.424 73.8759 443.935 51.0354 443.935C50.8334 443.939 50.6314 443.931 50.4303 443.912C45.4423 443.861 40.5061 442.895 35.8675 441.061C31.9939 439.546 28.3786 437.44 25.1504 434.818C18.7403 429.702 14.0009 422.792 11.5371 414.97C10.2941 410.962 9.66103 406.79 9.65908 402.594C9.65908 379.763 28.1781 361.254 51.0396 361.254C55.2377 361.256 59.4118 361.889 63.4218 363.131C71.7339 365.723 79.012 370.878 84.2133 377.858C89.4146 384.838 92.272 393.284 92.3762 401.987C92.3925 402.189 92.398 402.393 92.3929 402.596Z" fill="url(#paint1_linear_3_852)"/>
<path d="M121.366 402.66C121.366 425.489 102.849 444 80.0084 444C79.8064 444.003 79.6044 443.996 79.4032 443.977C74.4152 443.926 69.479 442.96 64.8404 441.126C60.9668 439.611 57.3515 437.505 54.1234 434.883C47.7132 429.766 42.9738 422.856 40.51 415.035C39.2671 411.027 38.634 406.855 38.632 402.658C38.632 379.828 57.1511 361.319 80.0125 361.319C84.2107 361.321 88.3848 361.954 92.3947 363.196C100.707 365.788 107.985 370.943 113.186 377.922C118.388 384.902 121.245 393.349 121.349 402.051C121.365 402.254 121.371 402.457 121.366 402.66Z" fill="#FFA937"/>
<path d="M70.6066 389.296H80.7984M80.7984 389.296H95.9605M80.7984 389.296C82.8708 390.379 85.6608 392.434 85.6608 397.144C85.6608 401.853 80.9062 405.143 71.3995 404.992C76.2043 405.069 80.9063 414.408 88.0395 422.256M70.6066 397.42H95.9605" stroke="white" stroke-width="5" stroke-linecap="round"/>
<defs>
<linearGradient id="paint0_linear_3_852" x1="395.778" y1="291.554" x2="395.743" y2="291.554" gradientUnits="userSpaceOnUse">
<stop stop-color="#DEE1E2"/>
<stop offset="1" stop-color="#B4BCBE"/>
</linearGradient>
<linearGradient id="paint1_linear_3_852" x1="3.6662" y1="453.054" x2="73.8913" y2="378.174" gradientUnits="userSpaceOnUse">
<stop stop-color="#FB9835"/>
<stop offset="1" stop-color="#FBBB3C"/>
</linearGradient>
</defs>
</svg>
